<svg width="1492" height="779" viewBox="0 0 1492 779" fill="none" xmlns="http://www.w3.org/2000/svg">
<mask id="mask0_3603_3602" style="mask-type:luminance" maskUnits="userSpaceOnUse" x="0" y="45" width="1492" height="208">
<path d="M1491.99 45.7842V252.467H0.589005V45.7842H1491.99Z" fill="white"/>
</mask>
<g mask="url(#mask0_3603_3602)">
<path d="M264.02 185.482C174.58 168.916 80.0054 170.495 -8.84065 188.875V51.3283C243.766 16.05 503.584 170.244 764.146 152.743C870.921 145.574 971.007 110.562 1074.99 90.2346C1214.22 63.0094 1361.8 62.9072 1501.42 88.8447V136.857C1349.79 109.223 1189.25 112.289 1040.4 148.512C879.842 187.562 725.428 263.31 558.003 251.021C456.342 243.555 363.388 203.898 264.02 185.482Z" fill="#ECE5DB"/>
</g>
<mask id="mask1_3603_3602" style="mask-type:luminance" maskUnits="userSpaceOnUse" x="0" y="0" width="1492" height="82">
<path d="M1491.4 0V81.1033H-4.57764e-05V0H1491.4Z" fill="white"/>
</mask>
<g mask="url(#mask1_3603_3602)">
<path d="M707.79 80.347C470.571 74.0006 227.356 -25.5441 -9.43159 -4.19523V-7.37866H1500.83V17.5114C1245.16 -17.3837 967.928 87.2964 707.79 80.347Z" fill="#ECE5DB"/>
</g>
<mask id="mask2_3603_3602" style="mask-type:luminance" maskUnits="userSpaceOnUse" x="0" y="214" width="1492" height="219">
<path d="M1491.99 214.531V432.987H0.589005V214.531H1491.99Z" fill="white"/>
</mask>
<g mask="url(#mask2_3603_3602)">
<path d="M217.386 287.285C142.177 274.73 62.3511 280.944 -8.84065 303.56V238.451C40.0791 223.269 95.4848 219.253 148.232 223.724C386.979 244.01 579.014 418.833 881.371 317.914C1012.83 274.036 1101.86 190.163 1363.26 222.942C1410.06 228.803 1455.99 237.802 1501.42 248.364V390.105C1380.01 355.435 1246.02 346.094 1119.18 363.667C960.596 385.65 805.881 449.374 647.019 428.731C493.055 408.726 370.024 312.778 217.386 287.285Z" fill="#ECE5DB"/>
</g>
<mask id="mask3_3603_3602" style="mask-type:luminance" maskUnits="userSpaceOnUse" x="0" y="374" width="1492" height="299">
<path d="M1491.99 374.122V672.373H0.589005V374.122H1491.99Z" fill="white"/>
</mask>
<g mask="url(#mask3_3603_3602)">
<path d="M-8.84065 671.509V392.114C20.5961 383.626 51.6985 378.317 82.6833 376.268C356.596 358.092 546.122 538.485 901.415 504.198C1076.67 487.289 1308.36 400.346 1501.42 439.87V496.436C1434.75 486.078 1362.96 490.33 1295.81 502.486C1087.51 540.197 881.031 662.552 659.768 626.568C512.878 602.665 399.65 509.2 140.218 602.961C87.7712 621.918 38.6814 645.735 -8.84065 671.509Z" fill="#ECE5DB"/>
</g>
<mask id="mask4_3603_3602" style="mask-type:luminance" maskUnits="userSpaceOnUse" x="0" y="570" width="1492" height="208">
<path d="M1491.99 570.34V777.871H0.589005V570.34H1491.99Z" fill="white"/>
</mask>
<g mask="url(#mask4_3603_3602)">
<path d="M15.4494 785.244H-8.84065V710.574C150.022 624.647 356.733 591.867 544.313 629.609C636.399 648.137 726.205 682.265 821.119 678.101C913.466 674.044 995.976 634.356 1082.18 608.168C1214.75 567.907 1362.65 559.967 1501.42 583.988V687.176C1367.13 649.128 1217.18 644.79 1079.82 676.527C981.888 699.159 887.595 739.7 785.516 737.963C692.634 736.368 607.302 699.864 517.313 681.852C342.285 646.808 146.854 689.067 15.4494 785.244Z" fill="#ECE5DB"/>
</g>
<mask id="mask5_3603_3602" style="mask-type:luminance" maskUnits="userSpaceOnUse" x="183" y="726" width="1309" height="52">
<path d="M1491.99 726.006V777.87H183.225V726.006H1491.99Z" fill="white"/>
</mask>
<g mask="url(#mask5_3603_3602)">
<path d="M1501.42 785.244H183.782C236.66 753.364 304.207 734.922 371.311 729.225C571.83 712.214 766.465 792.566 967.101 784.273C1123.36 777.809 1292.6 709.542 1501.42 764.135V785.244Z" fill="#ECE5DB"/>
</g>
</svg>
