<svg width="36" height="36" viewBox="0 0 36 36" fill="none" xmlns="http://www.w3.org/2000/svg">
<path d="M34.6668 14.6666V13.3616C34.6668 10.1283 34.6668 8.51328 33.6902 7.50828C32.7135 6.50494 31.1435 6.50494 28.0002 6.50494H24.5352C23.0068 6.50494 22.9935 6.50161 21.6185 5.81328L16.0668 3.03494C13.7485 1.87494 12.5885 1.29494 11.3535 1.33494C10.1185 1.37494 9.00016 2.02994 6.75516 3.33994L4.71016 4.53328C3.06183 5.49494 2.2385 5.97661 1.78683 6.77661C1.3335 7.57661 1.3335 8.54994 1.3335 10.4983V24.1933C1.3335 26.7516 1.3335 28.0316 1.9035 28.7433C2.2835 29.2183 2.81516 29.5366 3.4035 29.6433C4.28683 29.8016 5.37016 29.1699 7.5335 27.9066C9.0035 27.0483 10.4168 26.1566 12.1752 26.3983C13.6485 26.6016 15.0168 27.5316 16.3335 28.1899M11.3335 1.33328V26.3333M23.0002 6.33328V13.8333" stroke="black" stroke-width="1.5" stroke-linecap="round" stroke-linejoin="round"/>
<path d="M27.1668 25.5H27.1818M28.5135 34.14C28.1478 34.4802 27.6663 34.6685 27.1668 34.6667C26.6635 34.6667 26.1818 34.4783 25.8201 34.1383C22.5101 31.0217 18.0768 27.5383 20.2385 22.4833C21.4085 19.75 24.2168 18 27.1668 18C30.1168 18 32.9268 19.75 34.0951 22.4833C36.2551 27.5333 31.8318 31.035 28.5135 34.14Z" stroke="black" stroke-width="1.5" stroke-linecap="round" stroke-linejoin="round"/>
</svg>
