<svg width="28" height="34" viewBox="0 0 28 34" fill="none" xmlns="http://www.w3.org/2000/svg">
<path d="M8.99967 16.1667C9.4417 16.1667 9.86562 15.9911 10.1782 15.6786C10.4907 15.366 10.6663 14.9421 10.6663 14.5C10.6663 14.058 10.4907 13.6341 10.1782 13.3215C9.86562 13.009 9.4417 12.8334 8.99967 12.8334C8.55765 12.8334 8.13372 13.009 7.82116 13.3215C7.5086 13.6341 7.33301 14.058 7.33301 14.5C7.33301 14.9421 7.5086 15.366 7.82116 15.6786C8.13372 15.9911 8.55765 16.1667 8.99967 16.1667ZM12.333 14.5C12.333 14.058 12.5086 13.6341 12.8212 13.3215C13.1337 13.009 13.5576 12.8334 13.9997 12.8334H18.9997C19.4417 12.8334 19.8656 13.009 20.1782 13.3215C20.4907 13.6341 20.6663 14.058 20.6663 14.5C20.6663 14.9421 20.4907 15.366 20.1782 15.6786C19.8656 15.9911 19.4417 16.1667 18.9997 16.1667H13.9997C13.5576 16.1667 13.1337 15.9911 12.8212 15.6786C12.5086 15.366 12.333 14.9421 12.333 14.5ZM13.9997 17.8334C13.5576 17.8334 13.1337 18.009 12.8212 18.3215C12.5086 18.6341 12.333 19.058 12.333 19.5C12.333 19.9421 12.5086 20.366 12.8212 20.6786C13.1337 20.9911 13.5576 21.1667 13.9997 21.1667H18.9997C19.4417 21.1667 19.8656 20.9911 20.1782 20.6786C20.4907 20.366 20.6663 19.9421 20.6663 19.5C20.6663 19.058 20.4907 18.6341 20.1782 18.3215C19.8656 18.009 19.4417 17.8334 18.9997 17.8334H13.9997ZM13.9997 22.8334C13.5576 22.8334 13.1337 23.009 12.8212 23.3215C12.5086 23.6341 12.333 24.058 12.333 24.5C12.333 24.9421 12.5086 25.366 12.8212 25.6786C13.1337 25.9911 13.5576 26.1667 13.9997 26.1667H18.9997C19.4417 26.1667 19.8656 25.9911 20.1782 25.6786C20.4907 25.366 20.6663 24.9421 20.6663 24.5C20.6663 24.058 20.4907 23.6341 20.1782 23.3215C19.8656 23.009 19.4417 22.8334 18.9997 22.8334H13.9997ZM10.6663 19.5C10.6663 19.9421 10.4907 20.366 10.1782 20.6786C9.86562 20.9911 9.4417 21.1667 8.99967 21.1667C8.55765 21.1667 8.13372 20.9911 7.82116 20.6786C7.5086 20.366 7.33301 19.9421 7.33301 19.5C7.33301 19.058 7.5086 18.6341 7.82116 18.3215C8.13372 18.009 8.55765 17.8334 8.99967 17.8334C9.4417 17.8334 9.86562 18.009 10.1782 18.3215C10.4907 18.6341 10.6663 19.058 10.6663 19.5ZM8.99967 26.1667C9.4417 26.1667 9.86562 25.9911 10.1782 25.6786C10.4907 25.366 10.6663 24.9421 10.6663 24.5C10.6663 24.058 10.4907 23.6341 10.1782 23.3215C9.86562 23.009 9.4417 22.8334 8.99967 22.8334C8.55765 22.8334 8.13372 23.009 7.82116 23.3215C7.5086 23.6341 7.33301 24.058 7.33301 24.5C7.33301 24.9421 7.5086 25.366 7.82116 25.6786C8.13372 25.9911 8.55765 26.1667 8.99967 26.1667Z" fill="#383838"/>
<path d="M8.99984 0.333374C8.55781 0.333374 8.13389 0.508969 7.82133 0.821529C7.50877 1.13409 7.33317 1.55801 7.33317 2.00004H3.99984C3.11578 2.00004 2.26794 2.35123 1.64281 2.97635C1.01769 3.60147 0.666504 4.44932 0.666504 5.33337V30.3334C0.666504 31.2174 1.01769 32.0653 1.64281 32.6904C2.26794 33.3155 3.11578 33.6667 3.99984 33.6667H23.9998C24.8839 33.6667 25.7317 33.3155 26.3569 32.6904C26.982 32.0653 27.3332 31.2174 27.3332 30.3334V5.33337C27.3332 4.44932 26.982 3.60147 26.3569 2.97635C25.7317 2.35123 24.8839 2.00004 23.9998 2.00004H20.6665C20.6665 1.55801 20.4909 1.13409 20.1783 0.821529C19.8658 0.508969 19.4419 0.333374 18.9998 0.333374H8.99984ZM20.6665 5.33337H23.9998V30.3334H3.99984V5.33337H7.33317V7.00004C7.33317 7.44207 7.50877 7.86599 7.82133 8.17855C8.13389 8.49111 8.55781 8.66671 8.99984 8.66671H18.9998C19.4419 8.66671 19.8658 8.49111 20.1783 8.17855C20.4909 7.86599 20.6665 7.44207 20.6665 7.00004V5.33337ZM10.6665 5.33337V3.66671H17.3332V5.33337H10.6665Z" fill="#383838"/>
</svg>
