<svg width="40" height="40" viewBox="0 0 40 40" fill="none" xmlns="http://www.w3.org/2000/svg">
<g clip-path="url(#clip0_2912_3006)">
<path d="M34.4446 8.88892H25.5557V11.1111H34.4446V34.4445H25.5557V36.6667H36.6668V11.1111C36.6668 10.5218 36.4326 9.95654 36.0159 9.53979C35.5992 9.12304 35.0339 8.88892 34.4446 8.88892Z" fill="#383838"/>
<path d="M22.0888 3.33337H6.79989C6.17516 3.33337 5.57601 3.58155 5.13426 4.0233C4.69251 4.46505 4.44434 5.0642 4.44434 5.68893V36.6667H24.4443V5.68893C24.4443 5.0642 24.1962 4.46505 23.7544 4.0233C23.3127 3.58155 22.7135 3.33337 22.0888 3.33337ZM22.2221 34.4445H18.8888V31.1112H9.99989V34.4445H6.66656V5.68893C6.66656 5.67142 6.67001 5.65408 6.67671 5.63791C6.68341 5.62173 6.69323 5.60703 6.70561 5.59465C6.71799 5.58227 6.73269 5.57245 6.74887 5.56575C6.76504 5.55904 6.78238 5.5556 6.79989 5.5556H22.0888C22.1063 5.5556 22.1236 5.55904 22.1398 5.56575C22.156 5.57245 22.1707 5.58227 22.1831 5.59465C22.1954 5.60703 22.2053 5.62173 22.212 5.63791C22.2187 5.65408 22.2221 5.67142 22.2221 5.68893V34.4445Z" fill="#383838"/>
<path d="M8.88867 8.88892H11.1109V11.1111H8.88867V8.88892Z" fill="#383838"/>
<path d="M13.3335 8.88892H15.5557V11.1111H13.3335V8.88892Z" fill="#383838"/>
<path d="M17.7778 8.88892H20.0001V11.1111H17.7778V8.88892Z" fill="#383838"/>
<path d="M8.88867 14.4445H11.1109V16.6667H8.88867V14.4445Z" fill="#383838"/>
<path d="M13.3335 14.4445H15.5557V16.6667H13.3335V14.4445Z" fill="#383838"/>
<path d="M17.7778 14.4445H20.0001V16.6667H17.7778V14.4445Z" fill="#383838"/>
<path d="M8.88867 20H11.1109V22.2222H8.88867V20Z" fill="#383838"/>
<path d="M13.3335 20H15.5557V22.2222H13.3335V20Z" fill="#383838"/>
<path d="M17.7778 20H20.0001V22.2222H17.7778V20Z" fill="#383838"/>
<path d="M8.88867 25.5555H11.1109V27.7778H8.88867V25.5555Z" fill="#383838"/>
<path d="M13.3335 25.5555H15.5557V27.7778H13.3335V25.5555Z" fill="#383838"/>
<path d="M17.7778 25.5555H20.0001V27.7778H17.7778V25.5555Z" fill="#383838"/>
<path d="M25.5557 14.4445H27.7779V16.6667H25.5557V14.4445Z" fill="#383838"/>
<path d="M30 14.4445H32.2222V16.6667H30V14.4445Z" fill="#383838"/>
<path d="M25.5557 20H27.7779V22.2222H25.5557V20Z" fill="#383838"/>
<path d="M30 20H32.2222V22.2222H30V20Z" fill="#383838"/>
<path d="M25.5557 25.5555H27.7779V27.7778H25.5557V25.5555Z" fill="#383838"/>
<path d="M30 25.5555H32.2222V27.7778H30V25.5555Z" fill="#383838"/>
</g>
<defs>
<clipPath id="clip0_2912_3006">
<rect width="40" height="40" fill="white"/>
</clipPath>
</defs>
</svg>
