<svg width="819" height="624" viewBox="0 0 819 624" fill="none" xmlns="http://www.w3.org/2000/svg">
<path d="M0 1.33619L12 0L18 1.33619H25.5938L39.5 25.833L51.1875 1.33619H76.7812H102.375H153.562L178 32.9593L204.75 1.33619H307.125H358.312L383.5 31.1777L409.5 1.33619H511.875H577L588 22.2698L603.5 1.33619H665.438L692 32.9593L716.625 1.33619H819V79.1692L780.5 89.97L819 98.6274V118.086V157.002V234.835V273.752L780 290.398L819 312.668V390.501L796.5 409.764L819 429.418V468.334V546.167V585.083L782 593.268L819 624H716.625L690 588.814L665.438 624H614.25H563.062H511.875L488 601.73L460.688 624H409.5H281.5L257 587.478L223.5 624H162.938L131.5 587.478L102.375 624H0V585.083V565.625L45 552.737L0 546.167V507.251V487.792L45 475.683L0 468.334V312.668V273.752V234.835V215.377L46 203.991L0 195.919V157.002V112.685L46.5 97.9872L0 84.6253V1.33619Z" fill="#E7DFD2"/>
</svg>
