<svg width="32" height="32" viewBox="0 0 32 32" fill="none" xmlns="http://www.w3.org/2000/svg">
<path d="M18.9998 0C18.2041 0 17.4411 0.31607 16.8784 0.878679C16.3158 1.44129 15.9998 2.20435 15.9998 3C15.9998 3.79565 16.3158 4.55871 16.8784 5.12132C17.4411 5.68393 18.2041 6 18.9998 6C19.7954 6 20.5585 5.68393 21.1211 5.12132C21.6837 4.55871 21.9998 3.79565 21.9998 3C21.9998 2.20435 21.6837 1.44129 21.1211 0.878679C20.5585 0.31607 19.7954 0 18.9998 0ZM18.2798 9.54C15.8998 9.74 9.39976 14.92 9.39976 14.92C8.99976 15.22 9.11977 15.2 9.43977 15.76C9.75977 16.3 9.71977 16.34 10.0998 16.08C10.4998 15.82 11.1598 15.4 12.2598 14.72C16.4998 12 12.9398 18.28 11.1198 28.86C10.3998 34.1 15.1198 31.4 16.3398 30.6C17.5398 29.82 20.7598 27.6 21.0798 27.38C21.5198 27.08 21.1998 26.84 20.8598 26.34C20.6198 26 20.3798 26.24 20.3798 26.24C19.0798 27.1 16.6998 28.9 16.3798 27.76C15.9998 26.62 18.4398 18.8 19.7798 13.42C19.9998 12.14 20.5998 9.34 18.2798 9.54Z" fill="#FAFAFA"/>
</svg>
