<svg width="390" height="712" viewBox="0 0 390 712" fill="none" xmlns="http://www.w3.org/2000/svg">
<path d="M0 1.52463L5.71429 0L8.57143 1.52463H12.1875L18.8095 29.4761L24.375 1.52463H36.5625H48.75L80.5 0L84.5 19.7356L97.5 1.52463H146.25H179L183.5 19.7356L195 1.52463H243.75H274.762L280 25.4104L287.381 1.52463H316.875L328 19.7356L341.25 1.52463H390V90.334L379 96.5596L390 112.536V134.739V179.143V267.953V312.358L383 331.71L390 356.762V445.572L383 465.305L390 489.976V534.381V623.191V667.595L378.5 676.324L390 712H336L331.5 686.59L325.5 712H292.5H268.125H236.5L232.381 686.59L225 712H195H125.5L121.5 686.59L112.5 712H67L64 686.59L59 712H0V667.595V645.393L12.1875 636.094L0 623.191V578.786V556.583L12.1875 545.006L0 534.381V356.762V312.358V267.953V245.751L12.1875 233.791L0 223.548V179.143V128.577L12.1875 112.341L0 96.5596V1.52463Z" fill="#E7DFD2"/>
</svg>
