<svg width="815" height="208" viewBox="0 0 815 208" fill="none" xmlns="http://www.w3.org/2000/svg">
<g filter="url(#filter0_dd_2253_121)">
<mask id="path-1-inside-1_2253_121" fill="white">
<path d="M52.54 103.71C71.17 107.78 80.48 110.29 80.5 110.84C74.52 126.35 71.55 134.16 71.55 134.75C71.43 134.76 71.29 134.78 71.17 134.81C68.51 134.37 62.64 132.37 53.61 128.94C48.65 133.56 43.69 138.11 38.73 142.57C38.74 156.26 39.47 163.07 40.93 162.93C41.88 163.38 48.11 165.52 59.61 169.61C64.03 164.3 68.52 159.06 73.05 153.89C73.88 154.68 77.62 161.24 84.24 174C84.25 174.44 84.25 174.89 84.25 175.35C83.82 175.37 74.61 181.8 56.61 194.13C33.62 186.11 21.8 182.33 21.16 181.85C17.44 169.5 13.72 157.4 10 145.44C20.49 128.72 25.84 120.03 26.05 120C26.5 119.9 35.34 114.71 52.54 103.71ZM118.74 87.16C136.99 88.99 146.3 90.54 146.67 91.5C146.67 92.08 151.09 102.76 159.93 123.99C152.13 161.46 147.72 181.08 146.68 183.71C137.23 186.81 127.79 189.83 118.36 192.76C103.16 182.42 95.08 176.83 94.12 175.46C93.61 168.28 92.74 148.28 91.49 115.56C105.86 100.5 114.94 90.79 118.74 87.16ZM123.61 114.51C119.72 120.5 115.81 126.39 111.93 132.2C112.93 148.02 113.43 157.73 113.43 161.3C113.71 161.27 116.25 163.3 120.98 167.43C127.29 165.15 130.42 163.58 130.43 162.76C132.83 151.65 135.22 140.46 137.61 129.16C135.7 121.62 134.07 118 132.75 118.25C129.7 116.97 126.65 115.72 123.61 114.51ZM194.11 66.74C205.89 64.75 211.8 64.31 211.8 65.39C216.35 84 219.12 96.02 220.12 101.28C220.24 101.25 220.36 101.22 220.49 101.21C221.58 97.2 225.72 85.76 232.93 66.44C233.04 66.4 233.18 66.37 233.29 66.35C244.59 64.53 250.24 64.36 250.24 65.8C253.64 105.46 257.03 144.92 260.42 184.12C260.43 184.82 251.51 186.77 233.66 189.85C233.55 189.45 233.43 189.05 233.3 188.65C232.31 154.48 231.8 133.43 231.8 125.71C231.68 125.72 231.54 125.74 231.43 125.76C226.27 133.82 221.13 141.71 215.99 149.48C215.86 149.48 215.73 149.5 215.62 149.52C215.12 149.18 211.6 140.88 205.06 124.88C204.92 124.91 204.79 124.93 204.67 124.95C196.63 161.82 192.24 180.85 191.5 183.06C191.23 183.07 190.97 183.09 190.74 183.11C176.37 174.2 168.18 169.08 166.25 167.36C166.25 167.19 166.25 167.01 166.25 166.84C184.08 103.13 193.36 68.18 194.11 66.74ZM269 52.54C280.66 50.14 286.5 49.39 286.5 50.35C286.5 50.5 286.49 50.66 286.49 50.82C286.5 55.2 287.57 101.86 289.75 188C289.56 188.15 289.39 188.3 289.23 188.45C281.66 187.76 274.06 187.11 266.49 186.47C266.32 185.91 266.24 185.49 266.25 185.2C266.91 143.37 267.57 100.55 268.25 56.83C268.36 54.07 268.61 52.64 269 52.54ZM349.86 19.99C351.53 19.46 353.19 18.92 354.86 18.39C355.44 18.21 356.87 31.75 359.12 59.38C359.37 60.16 363.45 102.55 371.37 181.74C371.12 181.99 370.86 182.23 370.61 182.49C355.49 181.87 347.92 180.79 347.92 179.21C347.93 170.89 346.14 165.05 342.56 161.84C342.55 161.52 336.66 152.71 324.93 135.67C324.8 135.67 324.68 135.68 324.55 135.7C324.8 136.39 325.58 150.31 326.85 177C314.66 183.94 307.5 187.58 305.37 188.08C304.7 188.09 302.66 162.3 299.25 109.44C298.7 106.14 297.27 87.23 295 52.6C302.41 46.57 309.83 40.42 317.25 34.14C317.75 33.99 319.15 52.12 321.5 88.55C328.77 100.15 336.07 111.98 343.36 124.02C343.49 124.01 343.62 123.99 343.75 123.99C343.75 122.73 340.54 90.43 334.12 26.54C334.41 26.45 334.56 26.14 334.56 25.61C340.97 23.05 346.07 21.2 349.86 19.99ZM422.86 7C438.7 21.07 447.12 28.89 448.11 30.86C442.48 60.16 439.47 75.28 439.04 75.96C438.02 75.83 431.25 69.59 418.74 57.17C411.49 72.8 407.86 81.53 407.87 83.35C407.32 111.33 407.05 127.01 407.05 131.34C415.72 139.76 420.86 144.5 422.5 145.56C430.57 138.55 435.22 134.34 436.42 132.84C435.67 127.78 434.91 122.7 434.17 117.57C432.68 119.25 428.16 123.08 420.61 129.12C420.48 128.58 420.36 128.05 420.24 127.51C420.25 125.37 420.25 123.18 420.25 121.01C420.25 115.35 420.12 106.63 419.87 94.72C421.83 93.69 433.25 91.69 454.11 89.71C454.61 95.32 455.5 118.62 456.75 158.01C456.06 159.45 443.54 168.93 419.12 186.73C398.33 171.91 387.79 163.54 387.5 161.62C381 115.12 377.73 89.49 377.75 86.79C386.29 50.44 391.18 29.57 392.42 26.38C393.47 24.95 403.62 16.82 422.86 7ZM543.87 44.5C558.86 62.41 566.57 71.07 566.99 71.18C567 72.34 563.87 82.03 557.62 100.56C557.47 100.53 557.31 100.51 557.16 100.48C556.65 100.39 549.5 92.97 535.62 77.68C533.26 82.96 530.9 88.27 528.54 93.65C540.52 106.34 555.04 121.64 572.11 139.07C564.37 161.41 558.85 176.43 555.62 183.95C543.83 185.34 532.07 186.79 520.3 188.32C504.17 168.19 495.66 157.27 494.74 156.51C494.74 156.23 494.74 155.96 494.73 155.69C494.75 153.48 498.02 143.62 504.54 126.17C504.82 126.18 505.09 126.21 505.36 126.26C507.93 129.47 516.05 138.6 529.66 153.16C532.41 147.81 535.16 142.49 537.91 137.22C512.89 110.53 499 94.32 496.29 90.57C496.3 90.31 496.3 90.06 496.31 89.81C504.27 60.86 508.6 46.56 509.3 46.33C530.01 44.27 541.53 43.8 543.87 44.5ZM606 62.64C624.25 75.2 633.54 81.83 633.92 83.06C633.91 83.7 638.35 97.2 647.16 122.69C639.39 159.46 634.97 179.58 633.92 182.29C624.48 184.93 615.04 187.65 605.62 190.47C590.41 176.71 582.32 168.57 581.36 166.63C580.87 157.04 580 129.84 578.75 84.29C593.1 71.84 602.2 64.81 606 62.64ZM610.86 98.16C606.97 103.75 603.06 109.41 599.16 115.16C600.16 135.31 600.66 147.53 600.66 151.92C600.97 151.95 603.49 154.92 608.25 160.77C614.54 159.16 617.66 157.91 617.66 156.97C620.07 144.79 622.47 132.68 624.87 120.65C622.95 111.45 621.33 106.69 619.99 106.44C616.94 103.71 613.9 100.94 610.86 98.16ZM680.75 83.1C698.99 94.18 708.3 100.01 708.68 101.06C708.68 101.59 713.1 113.08 721.93 134.65C714.14 165.66 709.72 182.94 708.67 185.29C699.23 187.56 689.79 189.93 680.36 192.37C665.16 180.31 657.08 173.2 656.12 171.5C655.61 163.19 654.74 139.83 653.5 100.96C667.86 90.67 676.95 84.87 680.75 83.1ZM685.61 113.38C681.71 118.04 677.83 122.78 673.93 127.6C674.93 144.76 675.43 155.19 675.43 158.95C675.71 158.98 678.25 161.55 683 166.61C689.29 165.28 692.42 164.22 692.42 163.41C694.83 153.03 697.21 142.78 699.61 132.63C697.7 124.82 696.08 120.78 694.75 120.54C691.69 118.17 688.64 115.78 685.61 113.38ZM783.11 108.42C784.77 108.79 786.45 109.16 788.12 109.52C788.7 109.65 790.12 116.71 792.36 130.4C792.61 130.83 796.7 151.7 804.62 192.48C804.37 192.6 804.12 192.71 803.86 192.83C788.75 191.75 781.18 190.8 781.17 189.89C781.16 185.1 779.38 181.69 775.81 179.59C775.81 179.41 769.93 173.88 758.18 162.69C758.06 162.68 757.93 162.66 757.81 162.65C758.05 163.09 758.83 171.31 760.12 187.51C747.9 191.32 740.74 193.46 738.62 193.72C737.95 193.7 735.89 176.38 732.5 142.16C731.95 139.97 730.54 127.77 728.25 105.15C735.66 104.39 743.08 103.69 750.49 103.03C751 103.14 752.39 114.09 754.75 135.33C762.03 143.45 769.32 151.35 776.62 159.06C776.74 159.06 776.87 159.07 776.99 159.09C777 158.43 773.79 141.01 767.37 105.65C767.66 105.72 767.8 105.61 767.81 105.33C774.21 106.54 779.32 107.56 783.11 108.42Z"/>
</mask>
<path d="M52.54 103.71C71.17 107.78 80.48 110.29 80.5 110.84C74.52 126.35 71.55 134.16 71.55 134.75C71.43 134.76 71.29 134.78 71.17 134.81C68.51 134.37 62.64 132.37 53.61 128.94C48.65 133.56 43.69 138.11 38.73 142.57C38.74 156.26 39.47 163.07 40.93 162.93C41.88 163.38 48.11 165.52 59.61 169.61C64.03 164.3 68.52 159.06 73.05 153.89C73.88 154.68 77.62 161.24 84.24 174C84.25 174.44 84.25 174.89 84.25 175.35C83.82 175.37 74.61 181.8 56.61 194.13C33.62 186.11 21.8 182.33 21.16 181.85C17.44 169.5 13.72 157.4 10 145.44C20.49 128.72 25.84 120.03 26.05 120C26.5 119.9 35.34 114.71 52.54 103.71ZM118.74 87.16C136.99 88.99 146.3 90.54 146.67 91.5C146.67 92.08 151.09 102.76 159.93 123.99C152.13 161.46 147.72 181.08 146.68 183.71C137.23 186.81 127.79 189.83 118.36 192.76C103.16 182.42 95.08 176.83 94.12 175.46C93.61 168.28 92.74 148.28 91.49 115.56C105.86 100.5 114.94 90.79 118.74 87.16ZM123.61 114.51C119.72 120.5 115.81 126.39 111.93 132.2C112.93 148.02 113.43 157.73 113.43 161.3C113.71 161.27 116.25 163.3 120.98 167.43C127.29 165.15 130.42 163.58 130.43 162.76C132.83 151.65 135.22 140.46 137.61 129.16C135.7 121.62 134.07 118 132.75 118.25C129.7 116.97 126.65 115.72 123.61 114.51ZM194.11 66.74C205.89 64.75 211.8 64.31 211.8 65.39C216.35 84 219.12 96.02 220.12 101.28C220.24 101.25 220.36 101.22 220.49 101.21C221.58 97.2 225.72 85.76 232.93 66.44C233.04 66.4 233.18 66.37 233.29 66.35C244.59 64.53 250.24 64.36 250.24 65.8C253.64 105.46 257.03 144.92 260.42 184.12C260.43 184.82 251.51 186.77 233.66 189.85C233.55 189.45 233.43 189.05 233.3 188.65C232.31 154.48 231.8 133.43 231.8 125.71C231.68 125.72 231.54 125.74 231.43 125.76C226.27 133.82 221.13 141.71 215.99 149.48C215.86 149.48 215.73 149.5 215.62 149.52C215.12 149.18 211.6 140.88 205.06 124.88C204.92 124.91 204.79 124.93 204.67 124.95C196.63 161.82 192.24 180.85 191.5 183.06C191.23 183.07 190.97 183.09 190.74 183.11C176.37 174.2 168.18 169.08 166.25 167.36C166.25 167.19 166.25 167.01 166.25 166.84C184.08 103.13 193.36 68.18 194.11 66.74ZM269 52.54C280.66 50.14 286.5 49.39 286.5 50.35C286.5 50.5 286.49 50.66 286.49 50.82C286.5 55.2 287.57 101.86 289.75 188C289.56 188.15 289.39 188.3 289.23 188.45C281.66 187.76 274.06 187.11 266.49 186.47C266.32 185.91 266.24 185.49 266.25 185.2C266.91 143.37 267.57 100.55 268.25 56.83C268.36 54.07 268.61 52.64 269 52.54ZM349.86 19.99C351.53 19.46 353.19 18.92 354.86 18.39C355.44 18.21 356.87 31.75 359.12 59.38C359.37 60.16 363.45 102.55 371.37 181.74C371.12 181.99 370.86 182.23 370.61 182.49C355.49 181.87 347.92 180.79 347.92 179.21C347.93 170.89 346.14 165.05 342.56 161.84C342.55 161.52 336.66 152.71 324.93 135.67C324.8 135.67 324.68 135.68 324.55 135.7C324.8 136.39 325.58 150.31 326.85 177C314.66 183.94 307.5 187.58 305.37 188.08C304.7 188.09 302.66 162.3 299.25 109.44C298.7 106.14 297.27 87.23 295 52.6C302.41 46.57 309.83 40.42 317.25 34.14C317.75 33.99 319.15 52.12 321.5 88.55C328.77 100.15 336.07 111.98 343.36 124.02C343.49 124.01 343.62 123.99 343.75 123.99C343.75 122.73 340.54 90.43 334.12 26.54C334.41 26.45 334.56 26.14 334.56 25.61C340.97 23.05 346.07 21.2 349.86 19.99ZM422.86 7C438.7 21.07 447.12 28.89 448.11 30.86C442.48 60.16 439.47 75.28 439.04 75.96C438.02 75.83 431.25 69.59 418.74 57.17C411.49 72.8 407.86 81.53 407.87 83.35C407.32 111.33 407.05 127.01 407.05 131.34C415.72 139.76 420.86 144.5 422.5 145.56C430.57 138.55 435.22 134.34 436.42 132.84C435.67 127.78 434.91 122.7 434.17 117.57C432.68 119.25 428.16 123.08 420.61 129.12C420.48 128.58 420.36 128.05 420.24 127.51C420.25 125.37 420.25 123.18 420.25 121.01C420.25 115.35 420.12 106.63 419.87 94.72C421.83 93.69 433.25 91.69 454.11 89.71C454.61 95.32 455.5 118.62 456.75 158.01C456.06 159.45 443.54 168.93 419.12 186.73C398.33 171.91 387.79 163.54 387.5 161.62C381 115.12 377.73 89.49 377.75 86.79C386.29 50.44 391.18 29.57 392.42 26.38C393.47 24.95 403.62 16.82 422.86 7ZM543.87 44.5C558.86 62.41 566.57 71.07 566.99 71.18C567 72.34 563.87 82.03 557.62 100.56C557.47 100.53 557.31 100.51 557.16 100.48C556.65 100.39 549.5 92.97 535.62 77.68C533.26 82.96 530.9 88.27 528.54 93.65C540.52 106.34 555.04 121.64 572.11 139.07C564.37 161.41 558.85 176.43 555.62 183.95C543.83 185.34 532.07 186.79 520.3 188.32C504.17 168.19 495.66 157.27 494.74 156.51C494.74 156.23 494.74 155.96 494.73 155.69C494.75 153.48 498.02 143.62 504.54 126.17C504.82 126.18 505.09 126.21 505.36 126.26C507.93 129.47 516.05 138.6 529.66 153.16C532.41 147.81 535.16 142.49 537.91 137.22C512.89 110.53 499 94.32 496.29 90.57C496.3 90.31 496.3 90.06 496.31 89.81C504.27 60.86 508.6 46.56 509.3 46.33C530.01 44.27 541.53 43.8 543.87 44.5ZM606 62.64C624.25 75.2 633.54 81.83 633.92 83.06C633.91 83.7 638.35 97.2 647.16 122.69C639.39 159.46 634.97 179.58 633.92 182.29C624.48 184.93 615.04 187.65 605.62 190.47C590.41 176.71 582.32 168.57 581.36 166.63C580.87 157.04 580 129.84 578.75 84.29C593.1 71.84 602.2 64.81 606 62.64ZM610.86 98.16C606.97 103.75 603.06 109.41 599.16 115.16C600.16 135.31 600.66 147.53 600.66 151.92C600.97 151.95 603.49 154.92 608.25 160.77C614.54 159.16 617.66 157.91 617.66 156.97C620.07 144.79 622.47 132.68 624.87 120.65C622.95 111.45 621.33 106.69 619.99 106.44C616.94 103.71 613.9 100.94 610.86 98.16ZM680.75 83.1C698.99 94.18 708.3 100.01 708.68 101.06C708.68 101.59 713.1 113.08 721.93 134.65C714.14 165.66 709.72 182.94 708.67 185.29C699.23 187.56 689.79 189.93 680.36 192.37C665.16 180.31 657.08 173.2 656.12 171.5C655.61 163.19 654.74 139.83 653.5 100.96C667.86 90.67 676.95 84.87 680.75 83.1ZM685.61 113.38C681.71 118.04 677.83 122.78 673.93 127.6C674.93 144.76 675.43 155.19 675.43 158.95C675.71 158.98 678.25 161.55 683 166.61C689.29 165.28 692.42 164.22 692.42 163.41C694.83 153.03 697.21 142.78 699.61 132.63C697.7 124.82 696.08 120.78 694.75 120.54C691.69 118.17 688.64 115.78 685.61 113.38ZM783.11 108.42C784.77 108.79 786.45 109.16 788.12 109.52C788.7 109.65 790.12 116.71 792.36 130.4C792.61 130.83 796.7 151.7 804.62 192.48C804.37 192.6 804.12 192.71 803.86 192.83C788.75 191.75 781.18 190.8 781.17 189.89C781.16 185.1 779.38 181.69 775.81 179.59C775.81 179.41 769.93 173.88 758.18 162.69C758.06 162.68 757.93 162.66 757.81 162.65C758.05 163.09 758.83 171.31 760.12 187.51C747.9 191.32 740.74 193.46 738.62 193.72C737.95 193.7 735.89 176.38 732.5 142.16C731.95 139.97 730.54 127.77 728.25 105.15C735.66 104.39 743.08 103.69 750.49 103.03C751 103.14 752.39 114.09 754.75 135.33C762.03 143.45 769.32 151.35 776.62 159.06C776.74 159.06 776.87 159.07 776.99 159.09C777 158.43 773.79 141.01 767.37 105.65C767.66 105.72 767.8 105.61 767.81 105.33C774.21 106.54 779.32 107.56 783.11 108.42Z" fill="white"/>
<path d="M52.54 103.71C71.17 107.78 80.48 110.29 80.5 110.84C74.52 126.35 71.55 134.16 71.55 134.75C71.43 134.76 71.29 134.78 71.17 134.81C68.51 134.37 62.64 132.37 53.61 128.94C48.65 133.56 43.69 138.11 38.73 142.57C38.74 156.26 39.47 163.07 40.93 162.93C41.88 163.38 48.11 165.52 59.61 169.61C64.03 164.3 68.52 159.06 73.05 153.89C73.88 154.68 77.62 161.24 84.24 174C84.25 174.44 84.25 174.89 84.25 175.35C83.82 175.37 74.61 181.8 56.61 194.13C33.62 186.11 21.8 182.33 21.16 181.85C17.44 169.5 13.72 157.4 10 145.44C20.49 128.72 25.84 120.03 26.05 120C26.5 119.9 35.34 114.71 52.54 103.71ZM118.74 87.16C136.99 88.99 146.3 90.54 146.67 91.5C146.67 92.08 151.09 102.76 159.93 123.99C152.13 161.46 147.72 181.08 146.68 183.71C137.23 186.81 127.79 189.83 118.36 192.76C103.16 182.42 95.08 176.83 94.12 175.46C93.61 168.28 92.74 148.28 91.49 115.56C105.86 100.5 114.94 90.79 118.74 87.16ZM123.61 114.51C119.72 120.5 115.81 126.39 111.93 132.2C112.93 148.02 113.43 157.73 113.43 161.3C113.71 161.27 116.25 163.3 120.98 167.43C127.29 165.15 130.42 163.58 130.43 162.76C132.83 151.65 135.22 140.46 137.61 129.16C135.7 121.62 134.07 118 132.75 118.25C129.7 116.97 126.65 115.72 123.61 114.51ZM194.11 66.74C205.89 64.75 211.8 64.31 211.8 65.39C216.35 84 219.12 96.02 220.12 101.28C220.24 101.25 220.36 101.22 220.49 101.21C221.58 97.2 225.72 85.76 232.93 66.44C233.04 66.4 233.18 66.37 233.29 66.35C244.59 64.53 250.24 64.36 250.24 65.8C253.64 105.46 257.03 144.92 260.42 184.12C260.43 184.82 251.51 186.77 233.66 189.85C233.55 189.45 233.43 189.05 233.3 188.65C232.31 154.48 231.8 133.43 231.8 125.71C231.68 125.72 231.54 125.74 231.43 125.76C226.27 133.82 221.13 141.71 215.99 149.48C215.86 149.48 215.73 149.5 215.62 149.52C215.12 149.18 211.6 140.88 205.06 124.88C204.92 124.91 204.79 124.93 204.67 124.95C196.63 161.82 192.24 180.85 191.5 183.06C191.23 183.07 190.97 183.09 190.74 183.11C176.37 174.2 168.18 169.08 166.25 167.36C166.25 167.19 166.25 167.01 166.25 166.84C184.08 103.13 193.36 68.18 194.11 66.74ZM269 52.54C280.66 50.14 286.5 49.39 286.5 50.35C286.5 50.5 286.49 50.66 286.49 50.82C286.5 55.2 287.57 101.86 289.75 188C289.56 188.15 289.39 188.3 289.23 188.45C281.66 187.76 274.06 187.11 266.49 186.47C266.32 185.91 266.24 185.49 266.25 185.2C266.91 143.37 267.57 100.55 268.25 56.83C268.36 54.07 268.61 52.64 269 52.54ZM349.86 19.99C351.53 19.46 353.19 18.92 354.86 18.39C355.44 18.21 356.87 31.75 359.12 59.38C359.37 60.16 363.45 102.55 371.37 181.74C371.12 181.99 370.86 182.23 370.61 182.49C355.49 181.87 347.92 180.79 347.92 179.21C347.93 170.89 346.14 165.05 342.56 161.84C342.55 161.52 336.66 152.71 324.93 135.67C324.8 135.67 324.68 135.68 324.55 135.7C324.8 136.39 325.58 150.31 326.85 177C314.66 183.94 307.5 187.58 305.37 188.08C304.7 188.09 302.66 162.3 299.25 109.44C298.7 106.14 297.27 87.23 295 52.6C302.41 46.57 309.83 40.42 317.25 34.14C317.75 33.99 319.15 52.12 321.5 88.55C328.77 100.15 336.07 111.98 343.36 124.02C343.49 124.01 343.62 123.99 343.75 123.99C343.75 122.73 340.54 90.43 334.12 26.54C334.41 26.45 334.56 26.14 334.56 25.61C340.97 23.05 346.07 21.2 349.86 19.99ZM422.86 7C438.7 21.07 447.12 28.89 448.11 30.86C442.48 60.16 439.47 75.28 439.04 75.96C438.02 75.83 431.25 69.59 418.74 57.17C411.49 72.8 407.86 81.53 407.87 83.35C407.32 111.33 407.05 127.01 407.05 131.34C415.72 139.76 420.86 144.5 422.5 145.56C430.57 138.55 435.22 134.34 436.42 132.84C435.67 127.78 434.91 122.7 434.17 117.57C432.68 119.25 428.16 123.08 420.61 129.12C420.48 128.58 420.36 128.05 420.24 127.51C420.25 125.37 420.25 123.18 420.25 121.01C420.25 115.35 420.12 106.63 419.87 94.72C421.83 93.69 433.25 91.69 454.11 89.71C454.61 95.32 455.5 118.62 456.75 158.01C456.06 159.45 443.54 168.93 419.12 186.73C398.33 171.91 387.79 163.54 387.5 161.62C381 115.12 377.73 89.49 377.75 86.79C386.29 50.44 391.18 29.57 392.42 26.38C393.47 24.95 403.62 16.82 422.86 7ZM543.87 44.5C558.86 62.41 566.57 71.07 566.99 71.18C567 72.34 563.87 82.03 557.62 100.56C557.47 100.53 557.31 100.51 557.16 100.48C556.65 100.39 549.5 92.97 535.62 77.68C533.26 82.96 530.9 88.27 528.54 93.65C540.52 106.34 555.04 121.64 572.11 139.07C564.37 161.41 558.85 176.43 555.62 183.95C543.83 185.34 532.07 186.79 520.3 188.32C504.17 168.19 495.66 157.27 494.74 156.51C494.74 156.23 494.74 155.96 494.73 155.69C494.75 153.48 498.02 143.62 504.54 126.17C504.82 126.18 505.09 126.21 505.36 126.26C507.93 129.47 516.05 138.6 529.66 153.16C532.41 147.81 535.16 142.49 537.91 137.22C512.89 110.53 499 94.32 496.29 90.57C496.3 90.31 496.3 90.06 496.31 89.81C504.27 60.86 508.6 46.56 509.3 46.33C530.01 44.27 541.53 43.8 543.87 44.5ZM606 62.64C624.25 75.2 633.54 81.83 633.92 83.06C633.91 83.7 638.35 97.2 647.16 122.69C639.39 159.46 634.97 179.58 633.92 182.29C624.48 184.93 615.04 187.65 605.62 190.47C590.41 176.71 582.32 168.57 581.36 166.63C580.87 157.04 580 129.84 578.75 84.29C593.1 71.84 602.2 64.81 606 62.64ZM610.86 98.16C606.97 103.75 603.06 109.41 599.16 115.16C600.16 135.31 600.66 147.53 600.66 151.92C600.97 151.95 603.49 154.92 608.25 160.77C614.54 159.16 617.66 157.91 617.66 156.97C620.07 144.79 622.47 132.68 624.87 120.65C622.95 111.45 621.33 106.69 619.99 106.44C616.94 103.71 613.9 100.94 610.86 98.16ZM680.75 83.1C698.99 94.18 708.3 100.01 708.68 101.06C708.68 101.59 713.1 113.08 721.93 134.65C714.14 165.66 709.72 182.94 708.67 185.29C699.23 187.56 689.79 189.93 680.36 192.37C665.16 180.31 657.08 173.2 656.12 171.5C655.61 163.19 654.74 139.83 653.5 100.96C667.86 90.67 676.95 84.87 680.75 83.1ZM685.61 113.38C681.71 118.04 677.83 122.78 673.93 127.6C674.93 144.76 675.43 155.19 675.43 158.95C675.71 158.98 678.25 161.55 683 166.61C689.29 165.28 692.42 164.22 692.42 163.41C694.83 153.03 697.21 142.78 699.61 132.63C697.7 124.82 696.08 120.78 694.75 120.54C691.69 118.17 688.64 115.78 685.61 113.38ZM783.11 108.42C784.77 108.79 786.45 109.16 788.12 109.52C788.7 109.65 790.12 116.71 792.36 130.4C792.61 130.83 796.7 151.7 804.62 192.48C804.37 192.6 804.12 192.71 803.86 192.83C788.75 191.75 781.18 190.8 781.17 189.89C781.16 185.1 779.38 181.69 775.81 179.59C775.81 179.41 769.93 173.88 758.18 162.69C758.06 162.68 757.93 162.66 757.81 162.65C758.05 163.09 758.83 171.31 760.12 187.51C747.9 191.32 740.74 193.46 738.62 193.72C737.95 193.7 735.89 176.38 732.5 142.16C731.95 139.97 730.54 127.77 728.25 105.15C735.66 104.39 743.08 103.69 750.49 103.03C751 103.14 752.39 114.09 754.75 135.33C762.03 143.45 769.32 151.35 776.62 159.06C776.74 159.06 776.87 159.07 776.99 159.09C777 158.43 773.79 141.01 767.37 105.65C767.66 105.72 767.8 105.61 767.81 105.33C774.21 106.54 779.32 107.56 783.11 108.42Z" stroke="#7A0015" stroke-width="10" mask="url(#path-1-inside-1_2253_121)"/>
</g>
<defs>
<filter id="filter0_dd_2253_121" x="0" y="0" width="814.62" height="207.13" filterUnits="userSpaceOnUse" color-interpolation-filters="sRGB">
<feFlood flood-opacity="0" result="BackgroundImageFix"/>
<feColorMatrix in="SourceAlpha" type="matrix" values="0 0 0 0 0 0 0 0 0 0 0 0 0 0 0 0 0 0 127 0" result="hardAlpha"/>
<feOffset dy="3"/>
<feGaussianBlur stdDeviation="5"/>
<feComposite in2="hardAlpha" operator="out"/>
<feColorMatrix type="matrix" values="0 0 0 0 0.882353 0 0 0 0 0.231373 0 0 0 0 0.345098 0 0 0 1 0"/>
<feBlend mode="normal" in2="BackgroundImageFix" result="effect1_dropShadow_2253_121"/>
<feColorMatrix in="SourceAlpha" type="matrix" values="0 0 0 0 0 0 0 0 0 0 0 0 0 0 0 0 0 0 127 0" result="hardAlpha"/>
<feOffset dy="4"/>
<feGaussianBlur stdDeviation="1.5"/>
<feComposite in2="hardAlpha" operator="out"/>
<feColorMatrix type="matrix" values="0 0 0 0 0 0 0 0 0 0 0 0 0 0 0 0 0 0 0.25 0"/>
<feBlend mode="normal" in2="effect1_dropShadow_2253_121" result="effect2_dropShadow_2253_121"/>
<feBlend mode="normal" in="SourceGraphic" in2="effect2_dropShadow_2253_121" result="shape"/>
</filter>
</defs>
</svg>
