<svg width="1280" height="779" viewBox="0 0 1280 779" fill="none" xmlns="http://www.w3.org/2000/svg">
<mask id="mask0_2253_71" style="mask-type:luminance" maskUnits="userSpaceOnUse" x="-106" y="45" width="1492" height="208">
<path d="M1385.99 45.7842V252.467H-105.411V45.7842H1385.99Z" fill="white"/>
</mask>
<g mask="url(#mask0_2253_71)">
<path d="M158.02 185.482C68.5795 168.916 -25.9946 170.495 -114.841 188.875V51.3283C137.766 16.05 397.584 170.244 658.146 152.743C764.921 145.574 865.007 110.562 968.993 90.2346C1108.22 63.0094 1255.8 62.9072 1395.42 88.8447V136.857C1243.79 109.223 1083.25 112.289 934.403 148.512C773.842 187.562 619.428 263.31 452.003 251.021C350.342 243.555 257.388 203.898 158.02 185.482Z" fill="#ECE5DB" fill-opacity="0.08"/>
</g>
<mask id="mask1_2253_71" style="mask-type:luminance" maskUnits="userSpaceOnUse" x="-106" y="0" width="1492" height="82">
<path d="M1385.4 0V81.1033H-106V0H1385.4Z" fill="white"/>
</mask>
<g mask="url(#mask1_2253_71)">
<path d="M601.79 80.347C364.571 74.0006 121.356 -25.5441 -115.432 -4.19523V-7.37866H1394.83V17.5114C1139.16 -17.3837 861.928 87.2964 601.79 80.347Z" fill="#ECE5DB" fill-opacity="0.08"/>
</g>
<mask id="mask2_2253_71" style="mask-type:luminance" maskUnits="userSpaceOnUse" x="-106" y="214" width="1492" height="219">
<path d="M1385.99 214.531V432.987H-105.411V214.531H1385.99Z" fill="white"/>
</mask>
<g mask="url(#mask2_2253_71)">
<path d="M111.386 287.285C36.1774 274.73 -43.6489 280.944 -114.841 303.56V238.451C-65.9208 223.269 -10.5152 219.253 42.232 223.724C280.979 244.01 473.014 418.833 775.371 317.914C906.834 274.035 995.863 190.163 1257.26 222.942C1304.06 228.803 1349.99 237.802 1395.42 248.364V390.105C1274.01 355.435 1140.02 346.094 1013.18 363.667C854.596 385.65 699.881 449.374 541.019 428.731C387.055 408.726 264.024 312.778 111.386 287.285Z" fill="#ECE5DB" fill-opacity="0.08"/>
</g>
<mask id="mask3_2253_71" style="mask-type:luminance" maskUnits="userSpaceOnUse" x="-106" y="374" width="1492" height="299">
<path d="M1385.99 374.122V672.373H-105.411V374.122H1385.99Z" fill="white"/>
</mask>
<g mask="url(#mask3_2253_71)">
<path d="M-114.841 671.509V392.114C-85.4039 383.626 -54.3015 378.317 -23.3167 376.268C250.596 358.092 440.122 538.485 795.415 504.198C970.671 487.289 1202.36 400.345 1395.42 439.87V496.436C1328.75 486.078 1256.96 490.33 1189.81 502.486C981.513 540.197 775.031 662.552 553.768 626.568C406.878 602.664 293.65 509.2 34.2181 602.961C-18.2288 621.918 -67.3185 645.735 -114.841 671.509Z" fill="#ECE5DB" fill-opacity="0.08"/>
</g>
<mask id="mask4_2253_71" style="mask-type:luminance" maskUnits="userSpaceOnUse" x="-106" y="570" width="1492" height="208">
<path d="M1385.99 570.34V777.87H-105.411V570.34H1385.99Z" fill="white"/>
</mask>
<g mask="url(#mask4_2253_71)">
<path d="M-90.5506 785.244H-114.841V710.574C44.0215 624.647 250.733 591.867 438.313 629.609C530.399 648.137 620.205 682.265 715.119 678.101C807.466 674.044 889.976 634.356 976.177 608.168C1108.75 567.907 1256.65 559.967 1395.42 583.988V687.176C1261.13 649.128 1111.18 644.79 973.82 676.527C875.888 699.159 781.595 739.7 679.516 737.963C586.634 736.368 501.302 699.864 411.313 681.852C236.285 646.808 40.8539 689.067 -90.5506 785.244Z" fill="#ECE5DB" fill-opacity="0.08"/>
</g>
<mask id="mask5_2253_71" style="mask-type:luminance" maskUnits="userSpaceOnUse" x="77" y="726" width="1309" height="52">
<path d="M1385.99 726.006V777.871H77.2255V726.006H1385.99Z" fill="white"/>
</mask>
<g mask="url(#mask5_2253_71)">
<path d="M1395.42 785.244H77.7823C130.66 753.364 198.207 734.922 265.311 729.225C465.83 712.214 660.465 792.566 861.101 784.273C1017.36 777.809 1186.6 709.542 1395.42 764.135V785.244Z" fill="#ECE5DB" fill-opacity="0.08"/>
</g>
</svg>
