<svg width="675" height="399" viewBox="0 0 675 399" fill="none" xmlns="http://www.w3.org/2000/svg">
<path d="M151.517 249.533C101.564 166.338 229.072 129.178 269.073 183.931C261.562 146.771 302.874 158.116 302.874 158.116C293.861 -19.7816 546.435 -37.21 596.388 122.604C723.895 48.1227 796.384 162.064 761.452 223.227C823.985 194.783 843.892 242.955 843.892 242.955C951.308 251.671 1033.94 304.285 871.309 295.405C801.266 361.009 733.847 339.142 718.826 301.982C678.828 358.871 516.389 402.605 443.904 312.998C321.466 334.865 261.374 288.993 261.374 288.993C-65.9413 317.272 21.5651 247.232 151.517 249.533Z" fill="#F9E6C0"/>
<path d="M564.84 365.119C540.426 365.119 518.079 361.174 498.175 353.281C476.203 344.568 457.799 331.414 443.528 313.821C421.744 317.766 400.335 319.575 380.244 319.575C304.752 319.575 264.942 292.283 261.186 289.651C209.356 294.089 164.848 296.392 128.981 296.392C97.0575 296.392 72.6444 294.583 56.3086 291.131C37.9041 287.186 33.9609 281.76 33.9609 277.977C33.9609 271.074 45.9781 263.838 67.1991 258.084C89.359 252 117.152 248.71 145.508 248.71C147.386 248.71 149.263 248.71 151.141 248.71H151.517C167.665 254.794 185.882 257.919 204.098 257.919C228.133 257.919 251.419 252.494 271.513 242.465L272.077 242.136L272.452 242.465C292.547 257.426 319.21 265.645 347.754 265.645C376.861 265.645 403.903 257.097 424.185 241.642L425.312 240.82L425.687 242.136C429.443 257.426 446.533 275.019 475.828 279.951C481.649 280.938 488.033 281.431 494.417 281.431C511.695 281.431 529.16 277.977 545.496 274.196C548.125 273.538 550.754 273.045 553.382 272.387C572.726 267.948 592.82 263.18 613.287 263.18C614.038 263.18 614.789 263.18 615.54 263.18C641.643 263.674 666.432 271.893 690.657 279.951C697.605 282.254 704.74 284.719 711.878 286.857C733.096 293.27 751.313 296.392 767.839 296.392C783.236 296.392 796.759 293.599 808.401 288.008C822.671 281.102 834.128 269.922 845.019 259.071C850.088 253.974 855.537 248.875 860.982 244.107L861.358 243.778H861.733C917.131 250.849 964.828 269.264 963.701 283.074C962.95 292.118 942.48 296.886 904.36 296.886C894.596 296.886 883.514 296.557 871.685 295.899C834.504 330.591 801.641 337.991 780.608 337.991C765.962 337.991 752.064 334.372 740.798 327.633C730.655 321.549 722.956 313.163 718.638 303.463C706.808 319.575 685.212 334.701 657.607 346.046C628.687 358.377 595.637 365.119 564.84 365.119Z" fill="#EACD9A"/>
<path d="M861.545 244.765C844.267 259.4 829.809 278.47 808.775 288.664C779.48 302.805 743.05 297.215 711.502 287.515C679.954 277.812 648.969 264.496 615.539 264.003C591.881 263.674 568.782 269.758 545.871 275.019C522.96 280.28 498.926 284.719 475.639 280.773C452.353 276.828 429.817 262.687 424.748 242.465C382.872 274.525 314.139 274.854 271.888 243.285C235.646 261.535 189.636 263.838 151.14 249.533C21.3766 247.561 -65.7543 317.437 261.561 288.993C261.561 288.993 321.466 335.03 444.091 312.998C516.576 402.77 679.015 359.035 719.013 301.983C734.034 339.142 801.452 361.009 871.496 295.405C1024.73 303.792 959.757 257.261 861.545 244.765Z" fill="#EACD9A"/>
<path d="M367.096 205.634C400.71 230.462 446.156 237.201 486.53 226.678C526.903 216.156 474.512 268.77 413.481 260.548C352.638 252.329 367.096 205.634 367.096 205.634Z" fill="#EACD9A"/>
<path d="M656.48 176.861C678.265 162.558 737.23 170.119 732.533 203.66C727.839 237.201 740.047 200.866 698.168 184.918C681.081 178.506 656.48 176.861 656.48 176.861Z" fill="#EACD9A"/>
<path d="M322.406 113.066C331.795 76.238 375.736 24.2817 445.407 26.5819C515.076 28.8848 577.609 107.311 581.928 152.855C590.568 140.359 637.889 117.014 673.193 122.275C642.208 129.014 571.6 188.699 571.6 188.699C571.6 188.699 533.856 55.1906 448.036 58.9741C362.029 62.5902 322.406 113.066 322.406 113.066Z" fill="white"/>
</svg>
