<svg width="996" height="344" viewBox="0 0 996 344" fill="none" xmlns="http://www.w3.org/2000/svg">
<path d="M151.517 282.532C101.564 199.338 229.072 162.178 269.073 216.931C261.562 179.771 302.874 191.116 302.874 191.116C293.861 13.2182 546.435 -4.21026 596.388 155.604C723.895 81.1225 796.384 195.064 761.452 256.227C823.985 227.782 843.892 275.955 843.892 275.955C951.308 284.671 1033.94 337.285 871.309 328.405C801.266 394.009 733.847 372.142 718.826 334.982C678.828 391.871 516.389 435.605 443.904 345.998C321.466 367.865 261.374 321.992 261.374 321.992C-65.9413 350.272 21.5651 280.232 151.517 282.532Z" fill="#F9E6C0"/>
<path d="M564.84 398.119C540.426 398.119 518.079 394.173 498.175 386.28C476.203 377.567 457.799 364.413 443.528 346.82C421.744 350.765 400.335 352.575 380.244 352.575C304.752 352.575 264.942 325.282 261.186 322.65C209.356 327.089 164.848 329.392 128.981 329.392C97.0575 329.392 72.6444 327.582 56.3086 324.131C37.9041 320.186 33.9609 314.76 33.9609 310.976C33.9609 304.073 45.9781 296.838 67.1991 291.083C89.359 285 117.152 281.71 145.508 281.71C147.386 281.71 149.263 281.71 151.141 281.71H151.517C167.665 287.793 185.882 290.919 204.098 290.919C228.133 290.919 251.419 285.493 271.513 275.464L272.077 275.135L272.452 275.464C292.547 290.425 319.21 298.645 347.754 298.645C376.861 298.645 403.903 290.096 424.185 274.642L425.312 273.819L425.687 275.135C429.443 290.425 446.533 308.018 475.828 312.95C481.649 313.937 488.033 314.431 494.417 314.431C511.695 314.431 529.16 310.976 545.496 307.196C548.125 306.538 550.754 306.044 553.382 305.386C572.726 300.948 592.82 296.18 613.287 296.18C614.038 296.18 614.789 296.18 615.54 296.18C641.643 296.673 666.432 304.893 690.657 312.95C697.605 315.253 704.74 317.718 711.878 319.857C733.096 326.269 751.313 329.392 767.839 329.392C783.236 329.392 796.759 326.598 808.401 321.008C822.671 314.102 834.128 302.922 845.019 292.07C850.088 286.974 855.537 281.874 860.982 277.107L861.358 276.778H861.733C917.131 283.848 964.828 302.264 963.701 316.073C962.95 325.118 942.48 329.885 904.36 329.885C894.596 329.885 883.514 329.556 871.685 328.898C834.504 363.591 801.641 370.99 780.608 370.99C765.962 370.99 752.064 367.371 740.798 360.633C730.655 354.549 722.956 346.162 718.638 336.462C706.808 352.575 685.212 367.7 657.607 379.045C628.687 391.377 595.637 398.119 564.84 398.119Z" fill="#EACD9A"/>
<path d="M861.545 277.765C844.267 292.399 829.809 311.47 808.775 321.663C779.48 335.805 743.05 330.214 711.502 320.515C679.954 310.812 648.969 297.496 615.539 297.002C591.881 296.673 568.782 302.757 545.871 308.018C522.96 313.279 498.926 317.718 475.639 313.773C452.353 309.828 429.817 295.686 424.748 275.464C382.872 307.525 314.139 307.854 271.888 276.284C235.646 294.535 189.636 296.838 151.14 282.532C21.3766 280.561 -65.7543 350.436 261.561 321.992C261.561 321.992 321.466 368.029 444.091 345.998C516.576 435.769 679.015 392.035 719.013 334.982C734.034 372.142 801.452 394.009 871.496 328.405C1024.73 336.792 959.757 290.261 861.545 277.765Z" fill="#EACD9A"/>
<path d="M367.096 238.634C400.71 263.462 446.156 270.201 486.53 259.678C526.903 249.156 474.512 301.77 413.481 293.548C352.638 285.329 367.096 238.634 367.096 238.634Z" fill="#EACD9A"/>
<path d="M656.48 209.86C678.265 195.557 737.23 203.119 732.533 236.659C727.839 270.2 740.047 233.866 698.168 217.918C681.081 211.505 656.48 209.86 656.48 209.86Z" fill="#EACD9A"/>
<path d="M322.406 146.066C331.795 109.238 375.736 57.2814 445.407 59.5816C515.076 61.8846 577.609 140.311 581.928 185.855C590.568 173.359 637.889 150.014 673.193 155.275C642.208 162.014 571.6 221.699 571.6 221.699C571.6 221.699 533.856 88.1904 448.036 91.9738C362.029 95.59 322.406 146.066 322.406 146.066Z" fill="white"/>
</svg>
