<svg width="714" height="383" viewBox="0 0 714 383" fill="none" xmlns="http://www.w3.org/2000/svg">
<path d="M-130.483 233.533C-180.436 150.338 -52.9285 113.178 -12.9275 167.931C-20.4382 130.771 20.874 142.116 20.874 142.116C11.8611 -35.7816 264.435 -53.21 314.388 106.604C441.895 32.1227 514.384 146.064 479.452 207.227C541.985 178.783 561.892 226.955 561.892 226.955C669.308 235.671 751.936 288.285 589.309 279.405C519.266 345.009 451.847 323.142 436.826 285.982C396.828 342.871 234.389 386.605 161.904 296.998C39.4663 318.865 -20.626 272.993 -20.626 272.993C-347.941 301.272 -260.435 231.232 -130.483 233.533Z" fill="#F9E6C0"/>
<path d="M282.84 349.119C258.426 349.119 236.079 345.174 216.175 337.281C194.203 328.568 175.799 315.414 161.528 297.821C139.744 301.766 118.335 303.575 98.2441 303.575C22.7516 303.575 -17.0585 276.283 -20.8138 273.651C-72.6443 278.089 -117.152 280.392 -153.019 280.392C-184.943 280.392 -209.356 278.583 -225.691 275.131C-244.096 271.186 -248.039 265.76 -248.039 261.977C-248.039 255.074 -236.022 247.838 -214.801 242.084C-192.641 236 -164.848 232.71 -136.492 232.71C-134.614 232.71 -132.737 232.71 -130.859 232.71H-130.483C-114.335 238.794 -96.1185 241.919 -77.9018 241.919C-53.8674 241.919 -30.581 236.494 -10.4866 226.465L-9.92325 226.136L-9.54771 226.465C10.5467 241.426 37.2098 249.645 65.7538 249.645C94.8611 249.645 121.903 241.097 142.185 225.642L143.312 224.82L143.687 226.136C147.443 241.426 164.533 259.019 193.828 263.951C199.649 264.938 206.033 265.431 212.417 265.431C229.695 265.431 247.16 261.977 263.496 258.196C266.125 257.538 268.754 257.045 271.382 256.387C290.726 251.948 310.82 247.18 331.287 247.18C332.038 247.18 332.789 247.18 333.54 247.18C359.643 247.674 384.432 255.893 408.657 263.951C415.605 266.254 422.74 268.719 429.878 270.857C451.096 277.27 469.313 280.392 485.839 280.392C501.236 280.392 514.759 277.599 526.401 272.008C540.671 265.102 552.128 253.922 563.019 243.071C568.088 237.974 573.537 232.875 578.982 228.107L579.358 227.778H579.733C635.131 234.849 682.828 253.264 681.701 267.074C680.95 276.118 660.48 280.886 622.36 280.886C612.596 280.886 601.514 280.557 589.685 279.899C552.504 314.591 519.641 321.991 498.608 321.991C483.962 321.991 470.064 318.372 458.798 311.633C448.655 305.549 440.956 297.163 436.638 287.463C424.808 303.575 403.212 318.701 375.607 330.046C346.687 342.377 313.637 349.119 282.84 349.119Z" fill="#EACD9A"/>
<path d="M579.545 228.765C562.267 243.4 547.809 262.47 526.775 272.664C497.48 286.805 461.05 281.215 429.502 271.515C397.954 261.812 366.969 248.496 333.539 248.003C309.881 247.674 286.782 253.758 263.871 259.019C240.96 264.28 216.926 268.719 193.639 264.773C170.353 260.828 147.817 246.687 142.748 226.465C100.872 258.525 32.1393 258.854 -10.1117 227.285C-46.3542 245.535 -92.3638 247.838 -130.86 233.533C-260.623 231.561 -347.754 301.437 -20.439 272.993C-20.439 272.993 39.4655 319.03 162.091 296.998C234.576 386.77 397.015 343.035 437.013 285.983C452.034 323.142 519.452 345.009 589.496 279.405C742.731 287.792 677.757 241.261 579.545 228.765Z" fill="#EACD9A"/>
<path d="M85.0962 189.634C118.71 214.462 164.156 221.201 204.53 210.678C244.903 200.156 192.512 252.77 131.481 244.548C70.638 236.329 85.0962 189.634 85.0962 189.634Z" fill="#EACD9A"/>
<path d="M374.48 160.861C396.265 146.558 455.23 154.119 450.533 187.66C445.839 221.201 458.047 184.866 416.168 168.918C399.081 162.506 374.48 160.861 374.48 160.861Z" fill="#EACD9A"/>
<path d="M40.4062 97.0661C49.7947 60.238 93.7357 8.28168 163.407 10.5819C233.076 12.8848 295.609 91.3114 299.928 136.855C308.568 124.359 355.889 101.014 391.193 106.275C360.208 113.014 289.6 172.699 289.6 172.699C289.6 172.699 251.856 39.1906 166.036 42.9741C80.0286 46.5902 40.4062 97.0661 40.4062 97.0661Z" fill="white"/>
</svg>
