<svg width="1190" height="779" viewBox="0 0 1190 779" fill="none" xmlns="http://www.w3.org/2000/svg">
<mask id="mask0_3104_6235" style="mask-type:luminance" maskUnits="userSpaceOnUse" x="0" y="45" width="1190" height="208">
<path d="M1189.76 45.7842V252.467H0.466064V45.7842H1189.76Z" fill="white"/>
</mask>
<g mask="url(#mask0_3104_6235)">
<path d="M210.536 185.482C139.214 168.916 63.7969 170.495 -7.05212 188.875V51.3283C194.385 16.05 401.573 170.244 609.354 152.743C694.5 145.574 774.312 110.562 857.234 90.2346C968.26 63.0094 1085.95 62.9072 1197.28 88.8447V136.857C1076.37 109.223 948.349 112.289 829.651 148.512C701.615 187.562 578.479 263.31 444.969 251.021C363.901 243.555 289.776 203.898 210.536 185.482Z" fill="#ECE5DB"/>
</g>
<mask id="mask1_3104_6235" style="mask-type:luminance" maskUnits="userSpaceOnUse" x="0" y="0" width="1190" height="82">
<path d="M1189.76 0V81.1033H0.466064V0H1189.76Z" fill="white"/>
</mask>
<g mask="url(#mask1_3104_6235)">
<path d="M564.885 80.347C375.719 74.0006 181.771 -25.5441 -7.05212 -4.19523V-7.37866H1197.28V17.5114C993.406 -17.3837 772.328 87.2964 564.885 80.347Z" fill="#ECE5DB"/>
</g>
<mask id="mask2_3104_6235" style="mask-type:luminance" maskUnits="userSpaceOnUse" x="0" y="214" width="1190" height="219">
<path d="M1189.76 214.531V432.987H0.466064V214.531H1189.76Z" fill="white"/>
</mask>
<g mask="url(#mask2_3104_6235)">
<path d="M173.349 287.285C113.375 274.73 49.7188 280.944 -7.05212 303.56V238.45C31.9583 223.269 76.1406 219.253 118.203 223.724C308.589 244.01 461.724 418.833 702.833 317.914C807.667 274.035 878.661 190.163 1087.11 222.942C1124.43 228.803 1161.05 237.802 1197.28 248.364V390.105C1100.46 355.435 993.615 346.094 892.469 363.667C766.01 385.65 642.635 449.374 515.953 428.731C393.177 408.726 295.068 312.778 173.349 287.285Z" fill="#ECE5DB"/>
</g>
<mask id="mask3_3104_6235" style="mask-type:luminance" maskUnits="userSpaceOnUse" x="0" y="374" width="1190" height="299">
<path d="M1189.76 374.122V672.373H0.466064V374.122H1189.76Z" fill="white"/>
</mask>
<g mask="url(#mask3_3104_6235)">
<path d="M-7.05212 671.509V392.114C16.4219 383.626 41.2239 378.317 65.9323 376.268C284.359 358.092 435.495 538.485 718.818 504.198C858.573 487.289 1043.33 400.345 1197.28 439.87V496.436C1144.12 486.078 1086.87 490.33 1033.32 502.486C867.219 540.197 702.562 662.552 526.12 626.568C408.984 602.664 318.693 509.2 111.812 602.961C69.9895 621.918 30.8438 645.735 -7.05212 671.509Z" fill="#ECE5DB"/>
</g>
<mask id="mask4_3104_6235" style="mask-type:luminance" maskUnits="userSpaceOnUse" x="0" y="570" width="1190" height="208">
<path d="M1189.76 570.34V777.871H0.466064V570.34H1189.76Z" fill="white"/>
</mask>
<g mask="url(#mask4_3104_6235)">
<path d="M12.3176 785.244H-7.05212V710.574C119.63 624.647 284.469 591.867 434.052 629.609C507.484 648.137 579.099 682.265 654.786 678.101C728.427 674.044 794.224 634.356 862.964 608.168C968.682 567.907 1086.62 559.967 1197.28 583.988V687.176C1090.19 649.128 970.62 644.79 861.083 676.527C782.99 699.159 707.797 739.7 626.396 737.963C552.328 736.368 484.281 699.864 412.521 681.852C272.948 646.808 117.104 689.067 12.3176 785.244Z" fill="#ECE5DB"/>
</g>
<mask id="mask5_3104_6235" style="mask-type:luminance" maskUnits="userSpaceOnUse" x="146" y="726" width="1044" height="52">
<path d="M1189.76 726.006V777.87H146.107V726.006H1189.76Z" fill="white"/>
</mask>
<g mask="url(#mask5_3104_6235)">
<path d="M1197.28 785.244H146.552C188.719 753.364 242.583 734.922 296.094 729.225C455.995 712.214 611.203 792.566 771.198 784.273C895.807 777.809 1030.76 709.542 1197.28 764.135V785.244Z" fill="#ECE5DB"/>
</g>
</svg>
