<svg width="2000" height="2000" viewBox="0 0 2000 2000" fill="none" xmlns="http://www.w3.org/2000/svg">
<path d="M359.167 850.681C336.464 883.143 303.086 942.384 292.127 980.039L291.186 979.942C292.497 969.167 292.368 957.313 293.371 946.296C295.506 921.904 299.318 897.689 304.782 873.821C332.564 751.299 418.335 604.479 504.39 512.876C635.372 373.447 820.318 265.319 1007.75 226.132C1036.68 220.082 1078.23 211.003 1107.57 210.265C1097.01 212.488 1082.63 217.497 1071.99 220.852C1032.02 237.577 995.537 252.794 957.222 273.293C793.827 360.712 655.715 491.877 585.564 665.889C570.271 703.822 561.132 735.85 550.391 774.833L550.959 776.1L551.497 776.273C641.192 599.302 845.229 468.871 1038.81 436.89C1124.94 422.661 1200.57 422.978 1285.34 444.143C1246.04 461.76 1207.26 479.992 1168.39 498.547C1162.16 501.521 1155.7 503.905 1149.59 507.052C1000.79 575.924 846.388 683.107 756.135 822.96C740.081 847.837 725.531 875.539 715.137 903.3C694.619 958.1 688.985 1019.92 713.376 1074.28C735.936 1124.55 783.469 1160.1 834.504 1177.41C841.819 1179.89 847.372 1182.08 855.076 1183.92C857.755 1184.55 876.783 1188.76 877.677 1189.14C940.737 1194.44 993.057 1187.58 1050.5 1157.7C1105.65 1128.99 1152.54 1080.3 1170.9 1019.93C1175.18 1004.24 1177.2 995.801 1178.98 979.375C1180.34 985.762 1181.57 989.863 1183.56 996.094C1185.72 1006.93 1188.91 1020.85 1189.95 1031.51C1194.7 1079.86 1177.41 1127.56 1150.53 1167.28C1084.63 1264.62 958.765 1328.83 846.009 1350.88C773.382 1364.97 698.475 1362.01 627.189 1342.23C609.614 1337.22 592.768 1330.84 575.702 1324.37C572.124 1323.13 568.064 1321.28 564.52 1319.72C424.212 1257.9 347.937 1108.02 348.561 959.01C348.717 921.683 353.685 886.877 359.167 850.681Z" fill="#E30E0E"/>
<path d="M359.167 850.682C336.464 883.144 303.086 942.385 292.127 980.04L291.186 979.943C292.497 969.168 292.368 957.314 293.371 946.297C295.506 921.905 299.318 897.69 304.782 873.822C332.564 751.3 418.335 604.48 504.39 512.877C635.372 373.448 820.318 265.32 1007.75 226.133C1036.68 220.083 1078.23 211.004 1107.57 210.266C1097.01 212.489 1082.63 217.498 1071.99 220.853C1032.02 237.578 995.537 252.795 957.222 273.294C793.827 360.713 655.715 491.878 585.564 665.89C570.271 703.823 561.132 735.851 550.391 774.834L550.959 776.101L551.497 776.274C641.192 599.303 845.229 468.872 1038.81 436.891C1124.94 422.662 1200.57 422.979 1285.34 444.144C1246.04 461.761 1207.26 479.993 1168.39 498.548C1162.16 501.521 1155.7 503.906 1149.59 507.053C1000.79 575.925 846.388 683.108 756.135 822.961C740.081 847.838 725.531 875.54 715.137 903.301C694.619 958.101 688.985 1019.92 713.376 1074.28C735.936 1124.55 783.469 1160.1 834.504 1177.41C841.819 1179.89 847.372 1182.08 855.076 1183.92C857.755 1184.55 876.783 1188.76 877.677 1189.14C940.737 1194.44 993.057 1187.58 1050.5 1157.7C1105.65 1129 1152.54 1080.3 1170.9 1019.93C1175.18 1004.24 1177.2 995.802 1178.98 979.376C1180.34 985.763 1181.57 989.864 1183.56 996.095C1185.72 1006.93 1188.91 1020.85 1189.95 1031.51C1194.7 1079.86 1177.41 1127.56 1150.53 1167.28C1084.63 1264.62 958.765 1328.83 846.009 1350.88C773.382 1364.97 698.475 1362.01 627.189 1342.23C609.614 1337.22 592.768 1330.84 575.702 1324.37C572.124 1323.14 568.064 1321.28 564.52 1319.72C424.212 1257.9 347.937 1108.02 348.561 959.011C348.717 921.684 353.685 886.878 359.167 850.682Z" fill="#E30E0E"/>
<path d="M877.677 1189.14C866.269 1189.5 861.745 1190.59 849.255 1189.77C779.64 1185.17 713.387 1160.51 666.388 1107.4C628.221 1064.28 611.184 1005.35 615.8 948.386C624.913 835.9 698.877 727.447 782.025 655.125C864.788 583.138 968.949 541.631 1074.84 518.082C1090.53 514.594 1134.93 505.978 1149.59 507.052C1000.79 575.924 846.388 683.107 756.135 822.96C740.081 847.837 725.531 875.539 715.137 903.3C694.619 958.1 688.985 1019.92 713.376 1074.28C735.936 1124.55 783.469 1160.1 834.504 1177.41C841.819 1179.89 847.372 1182.08 855.076 1183.92C857.755 1184.55 876.783 1188.76 877.677 1189.14Z" fill="#C90100"/>
<path d="M561.518 1102C549.937 1087.63 537.575 1071.92 528.279 1055.97C495.928 1000.47 479.681 930.778 482.331 866.854C489.652 690.277 592.871 516.541 722.407 399.833C805.56 323.822 904.65 267.356 1012.43 234.565C1025.26 230.645 1059.05 220.164 1071.99 220.852C1032.02 237.577 995.537 252.794 957.222 273.293C793.827 360.712 655.715 491.877 585.564 665.889C570.271 703.822 561.132 735.85 550.391 774.833L550.959 776.1L551.497 776.273C545.197 788.464 540.534 822.541 538.007 837.273C522.87 925.532 529.66 1017.77 561.518 1102Z" fill="#C90100"/>
<path d="M1178.98 979.375C1180.34 985.762 1181.57 989.863 1183.56 996.094C1185.72 1006.93 1188.91 1020.85 1189.95 1031.51C1194.7 1079.86 1177.41 1127.56 1150.53 1167.28C1084.63 1264.62 958.765 1328.83 846.009 1350.88C773.382 1364.97 698.475 1362.01 627.189 1342.23C609.614 1337.22 592.768 1330.84 575.702 1324.37C584.871 1324.45 599.243 1322.49 608.965 1321.71C632.166 1319.82 655.109 1317.75 678.254 1314.82C804.48 1298.84 944.519 1274.33 1053.33 1204.7C1096.57 1177.03 1139.82 1131.72 1159.65 1084.18C1167.09 1066.34 1171.98 1044.94 1175.94 1025.91C1175.51 1019.54 1175 1015.69 1176.57 1009.45C1175.87 1009.8 1173.44 1017.24 1170.9 1019.93C1175.18 1004.24 1177.2 995.801 1178.98 979.375Z" fill="#C90100"/>
<path d="M1178.98 979.375C1180.34 985.762 1181.57 989.863 1183.56 996.094C1174.11 1008.82 1179.69 1012.78 1175.94 1025.91C1175.51 1019.54 1175 1015.69 1176.57 1009.45C1175.87 1009.8 1173.44 1017.24 1170.9 1019.93C1175.18 1004.24 1177.2 995.801 1178.98 979.375Z" fill="#D90000"/>
<path d="M862.937 1110.99C788.36 1075.04 752.398 1007.98 772.699 927.175C787.354 868.839 821.825 815.926 860.607 771.036C1042.87 560.064 1323.96 509.22 1550.33 364.525C1642.85 305.567 1724.69 232.159 1795.03 147.905C1799.62 142.399 1805 135.938 1809.92 130.829C1786.06 176.945 1763.44 217.71 1734.52 260.836C1643.85 393.866 1525.19 505.461 1386.84 587.804C1413.92 589.847 1435.2 591.546 1462.12 597.569C1527.35 612.457 1586.25 647.511 1630.45 697.758C1706.18 785.296 1725.18 902.646 1716.16 1015.02C1700.2 1214.06 1574.98 1395.2 1427.27 1522.74C1360.02 1580.81 1268.21 1641.6 1185.85 1674.04C1201.17 1663.34 1218.09 1654.13 1232.99 1642.58C1236.6 1639.79 1242.29 1635.61 1246.23 1633.41C1259.64 1622.29 1274.26 1610.48 1287.02 1598.66C1380.5 1513.39 1451.85 1406.67 1494.95 1287.71C1557.3 1110.19 1533.09 866.719 1328.16 798.495C1215.55 761 1086.64 778.938 980.469 828.792C893.228 869.762 796.823 962.866 834.665 1067.91C837.895 1076.77 844.22 1085.81 848.511 1094.48C853.307 1100.2 857.846 1105.53 862.937 1110.99Z" fill="#0A9A33"/>
<path d="M848.511 1094.48C831.179 1085.65 814.354 1052.57 809.326 1034.79C794.371 981.924 808.506 925.358 835.827 879.043C888.775 786.213 999.121 724.549 1099.44 697.678C1212.58 667.375 1355.51 665.085 1459.44 725.433C1535.46 769.567 1584.77 837.26 1606.25 921.801C1643.43 1068.08 1592.23 1224.06 1519.42 1350C1461.65 1450.35 1383.26 1537.29 1289.4 1605.11C1280.86 1611.28 1254.99 1631.12 1246.23 1633.41C1259.64 1622.29 1274.26 1610.48 1287.02 1598.66C1380.5 1513.39 1451.85 1406.67 1494.95 1287.71C1557.3 1110.19 1533.09 866.719 1328.16 798.495C1215.55 761 1086.64 778.938 980.469 828.792C893.228 869.762 796.823 962.866 834.665 1067.91C837.895 1076.77 844.22 1085.81 848.511 1094.48Z" fill="#00762E"/>
<path d="M1032.81 857.55C1052.93 851.087 1071.78 849.39 1092.34 846.21C1232.37 824.56 1400.14 882.288 1447.08 1028.11C1475.43 1116.19 1448.11 1216.87 1406.93 1296.76C1330.91 1442.66 1192.48 1541.25 1037.69 1589.87C945.109 1618.96 865.978 1624.39 770.144 1629.22C605.807 1637.51 459.641 1666.72 327.552 1770.78C311.661 1783.25 296.544 1796.68 282.283 1810.99C276.751 1816.49 269.224 1825.35 264.052 1830.03C263.041 1827.58 263.008 1825.63 262.636 1822.96L259.302 1825.5L257.118 1824.1C263.145 1810.07 275.057 1792.06 282.727 1778.4C371.793 1619.72 527.052 1504.55 694.38 1438.78C737.789 1421.71 782.92 1410.46 828.208 1398.41C822.879 1400.77 817.131 1403.04 811.979 1405.7C735.933 1445.08 660.76 1487.08 593.249 1540.12C586.436 1545.47 579.721 1550.39 573.642 1556.57C604.05 1539.77 652.007 1521.81 684.878 1508.5C717.166 1495.27 749.571 1482.33 782.09 1469.68C931.536 1412.48 1088.66 1354.85 1195.82 1229.2C1235.21 1183.01 1270.64 1113.37 1271.57 1051.59C1272.6 1009.68 1256.51 969.152 1227.01 939.354C1177.71 889.171 1095.24 865.546 1026.25 865.135C1025.89 863.108 1025.25 861.518 1024.6 859.566C1028.53 858.127 1028.68 858.04 1032.81 857.55Z" fill="#FE7302"/>
<path d="M1032.81 857.55C1037.71 859.488 1054.37 856.287 1061.03 855.546C1170.34 843.375 1297.45 880.044 1344.89 988.828C1369.83 1046.04 1361.96 1111.54 1339 1168.78C1277.73 1317.07 1127.5 1425.52 983.896 1485.61C928.536 1508.77 864.195 1531.61 806.453 1546.48C643.927 1588.35 487.782 1599 356.425 1715.32C331.384 1737.73 308.338 1762.29 287.546 1788.68C278.984 1799.76 270.792 1812.74 262.636 1822.96L259.302 1825.5L257.118 1824.1C263.145 1810.07 275.057 1792.06 282.727 1778.4C371.793 1619.72 527.052 1504.55 694.38 1438.78C737.789 1421.71 782.92 1410.46 828.208 1398.41C822.879 1400.77 817.131 1403.04 811.978 1405.7C735.933 1445.08 660.76 1487.08 593.249 1540.12C586.436 1545.47 579.721 1550.39 573.642 1556.57C604.05 1539.77 652.007 1521.81 684.878 1508.5C717.166 1495.27 749.571 1482.33 782.09 1469.68C931.536 1412.48 1088.66 1354.85 1195.82 1229.2C1235.21 1183.01 1270.64 1113.37 1271.57 1051.59C1272.6 1009.68 1256.51 969.152 1227.01 939.354C1177.7 889.171 1095.24 865.546 1026.25 865.135C1025.89 863.108 1025.25 861.518 1024.6 859.566C1028.53 858.127 1028.68 858.04 1032.81 857.55Z" fill="#FF9E28"/>
<path d="M257.118 1824.1L259.302 1825.5L262.636 1822.96C263.008 1825.63 263.041 1827.58 264.052 1830.03C255.121 1839.79 246.588 1849.32 238.558 1859.85C240.592 1854.79 254.396 1827.65 257.118 1824.1Z" fill="#EC9800"/>
<path d="M1003.02 865.331L1024.6 859.566C1025.25 861.519 1025.89 863.108 1026.25 865.135L1003.02 865.331Z" fill="#FEBA02"/>
</svg>
